<svg width="226" height="113" viewBox="0 0 226 113" fill="none" xmlns="http://www.w3.org/2000/svg">
<g clip-path="url(#clip0_335_743)">
<path d="M114.368 59.6903C112.782 60.3156 110.352 60.4549 109.78 59.954C109.584 59.7807 108.736 59.4455 107.896 59.2082C105.84 58.6243 103.602 56.628 102.269 54.1872C101.282 52.3792 101.173 51.8293 101.199 48.944C101.237 45.3355 101.904 43.5464 103.99 41.4634C106.209 39.2411 107.904 38.6158 111.682 38.612C114.319 38.6083 115.29 38.7589 116.063 39.2825C116.948 39.8814 117.076 39.8927 117.279 39.3578C117.467 38.8757 118.029 38.7853 120.247 38.8757L122.982 38.9849L123.084 48.7331C123.155 55.6072 123.057 58.6319 122.752 58.9972C122.123 59.7543 117.675 59.7091 117.381 58.9407C117.215 58.5113 116.993 58.4624 116.492 58.7411C116.127 58.9483 115.17 59.3777 114.368 59.6903ZM71.7288 59.9314C71.6158 60.1159 70.6968 60.2666 69.6835 60.2666C68.6703 60.2666 67.7512 60.1159 67.6382 59.9314C67.5252 59.7506 66.8774 59.4907 66.2031 59.3551C64.2143 58.9596 62.0862 57.2156 60.6548 54.8012C59.4985 52.85 59.3064 52.1796 59.1896 49.6295C58.9824 45.0606 60.3234 42.3674 63.9921 39.9831C66.0487 38.6497 66.1994 38.612 69.6835 38.6196C72.6065 38.6271 73.5368 38.7778 74.7685 39.4332C76.6368 40.4313 78.49 42.3297 79.4957 44.2809C80.4562 46.1378 80.8253 49.7915 80.2679 51.8519C79.345 55.2532 75.9927 58.7938 73.1639 59.3551C72.4897 59.4907 71.8418 59.7506 71.7288 59.9314ZM149.865 59.6828C148.072 60.308 144.806 60.4625 144.482 59.9389C144.373 59.7581 143.619 59.5057 142.81 59.3777C140.99 59.0876 137.856 56.3945 136.945 54.3416C136.598 53.5619 136.154 52.6278 135.958 52.2662C135.762 51.9084 135.6 50.5222 135.6 49.1926C135.6 44.989 137.649 41.373 140.99 39.678C143.28 38.5141 147.013 38.1111 149.428 38.7665C153.262 39.8023 156.155 43.5388 156.569 47.9948C156.581 48.0965 156.592 48.1982 156.599 48.2961C156.716 49.5165 156.788 50.2849 156.452 50.7708C155.876 51.607 154.091 51.607 149.251 51.6033C149.025 51.6033 148.791 51.6033 148.55 51.6033C144.508 51.6033 141.25 51.7539 141.25 51.9385C141.25 52.1268 141.729 52.7898 142.312 53.415C144.211 55.4453 147.996 55.8257 150.072 54.1985C150.569 53.8068 151.187 53.4866 151.447 53.4866C151.831 53.4866 154.931 55.1025 155.537 55.6185C155.801 55.8445 153.567 58.0367 152.501 58.5904C151.955 58.8767 150.769 59.3664 149.865 59.6828ZM213.42 59.6074C211.129 60.3118 208.836 60.4436 207.92 59.9201C207.608 59.743 206.76 59.4756 206.037 59.3249C203.509 58.7976 200.507 55.7202 199.607 52.7333C198.357 48.5899 199.061 44.8835 201.656 41.9305C203.973 39.2938 205.611 38.612 209.615 38.612C213.435 38.612 215.081 39.2373 217.201 41.4935C219.167 43.584 219.71 45.0606 219.751 48.4016L219.785 51.4149L212.346 51.5166C204.108 51.6296 203.848 51.7238 206.195 53.7842C206.926 54.4283 208.131 55.0272 208.982 55.1703C210.617 55.4453 213.314 54.8125 213.996 53.9913C214.229 53.7126 214.629 53.4866 214.889 53.4866C215.551 53.4866 218.844 55.3699 218.844 55.7466C218.844 56.5414 215.393 59.001 213.42 59.6074ZM177.975 51.4149V59.3249L175.433 59.4379L172.89 59.5472V45.6293L171.621 44.2846C170.562 43.1622 170.095 42.9399 168.781 42.9399C167.474 42.9399 166.946 43.1885 165.632 44.4127L164.054 45.8855L163.91 52.511L163.764 59.1366H158.942L159.142 38.9849L161.195 38.8682C162.325 38.8041 163.636 38.9586 164.103 39.2072C164.788 39.5725 165.078 39.5612 165.59 39.1356C166.039 38.7627 167.3 38.6083 169.869 38.6083C173.259 38.6083 173.61 38.6798 174.86 39.6366C175.602 40.2016 176.608 41.3014 177.094 42.0849C177.945 43.456 177.975 43.7724 177.975 51.4149ZM51.4792 59.6074C48.8087 60.421 47.4263 60.3947 45.042 59.4907C42.5372 58.5415 40.7292 57.016 39.3016 54.6543C36.0811 49.3357 37.9946 42.4051 43.5052 39.4256C44.7557 38.7476 45.6183 38.612 48.5902 38.6196C51.9651 38.6346 52.2778 38.7024 54.1084 39.855C55.9277 40.9963 57.2535 42.4427 57.2535 43.2752C57.2535 43.746 53.9916 45.9533 53.2985 45.9533C53.0085 45.9533 52.6356 45.731 52.4699 45.4598C51.3888 43.6895 47.6561 43.0981 45.5053 44.3524C44.187 45.1208 42.9402 47.3356 42.9402 48.9063C42.9402 50.5411 43.8932 52.5148 45.2153 53.6297C46.1381 54.4057 46.7897 54.6166 48.2663 54.6166C50.3455 54.6166 51.4755 54.1721 52.4134 52.9932C53.0198 52.2285 53.0725 52.2248 54.485 52.8651C55.2836 53.2267 56.3571 53.8557 56.8769 54.2625L57.8185 55.0046L55.7318 56.9783C54.195 58.4285 53.0725 59.1215 51.4792 59.6074ZM192.104 59.5208C189.957 60.2967 187.422 60.4625 186.45 59.8899C186.138 59.7091 185.384 59.453 184.774 59.3212C183.667 59.0839 180.424 56.2024 180.424 55.4528C180.424 55.0648 183.919 52.7333 184.503 52.7333C184.669 52.7333 185.166 53.2267 185.61 53.8294C187.015 55.7278 190.936 55.7504 191.535 53.867C191.821 52.9555 191.166 51.9799 190.266 51.9762C189.927 51.9762 189.166 51.7238 188.575 51.4112C187.979 51.1023 187.249 50.8499 186.951 50.8499C186.066 50.8499 183.275 49.4563 182.676 48.7142C180.228 45.6821 180.834 41.5086 184.002 39.5499C185.558 38.5894 189.452 38.1789 191.573 38.7514C193.622 39.3089 196.244 41.2336 196.244 42.1828C196.244 42.6989 195.663 43.2224 194.356 43.8854L192.469 44.8383L191.324 43.9908C190.07 43.068 187.531 42.8382 186.789 43.5803C186.006 44.3637 186.721 45.9495 187.976 46.2019C188.593 46.3262 189.192 46.5748 189.305 46.7556C189.418 46.9364 189.878 47.0833 190.334 47.087C190.786 47.087 191.644 47.3394 192.236 47.652C192.831 47.9609 193.52 48.2133 193.769 48.2133C195.117 48.2133 197.667 52.7973 196.948 53.9273C196.775 54.2023 196.628 54.8125 196.628 55.2795C196.616 56.6205 194.413 58.6846 192.104 59.5208ZM93.745 59.001C93.4663 59.34 92.4606 59.5133 90.7731 59.5133C87.9594 59.5133 87.4999 59.1705 86.7013 56.4736C86.4904 55.7654 85.9857 54.3341 85.5789 53.2983C85.1758 52.2624 84.0722 49.3809 83.1268 46.8949C82.1813 44.4089 81.1455 41.7459 80.8216 40.9737C80.4939 40.2053 80.2302 39.3993 80.2302 39.1846C80.2302 38.9548 81.3489 38.7966 83.01 38.7966C85.6956 38.7966 85.8011 38.8305 86.1815 39.8324C86.3962 40.4012 87.0931 42.2017 87.7334 43.8326C88.37 45.4636 88.9011 46.9891 88.9048 47.2226C88.9124 47.4562 89.2476 48.3263 89.6469 49.1549C90.0461 49.9836 90.3814 50.8725 90.3889 51.1324C90.404 51.7125 91.1535 51.7652 91.1535 51.1889C91.1535 50.9629 91.3984 50.2397 91.6997 49.5881C92.001 48.9365 92.7431 46.9627 93.3457 45.1999C93.9484 43.4371 94.762 41.3203 95.1537 40.4916C95.8506 39.0113 95.9033 38.9812 98.0804 38.8719C98.3592 38.8569 98.6153 38.838 98.8526 38.8192C99.7453 38.7552 100.344 38.7137 100.627 38.9925C101.199 39.5499 100.51 41.3956 98.4383 46.9514C98.1671 47.6822 97.8695 48.4769 97.5456 49.3433C96.973 50.8951 95.9749 53.5921 95.3345 55.3285C94.6942 57.0687 93.9785 58.7223 93.745 59.001ZM134.014 57.3474L133.905 60.0783L132.527 60.1913C131.77 60.2553 131.039 60.1272 130.903 59.9088C130.771 59.6903 130.334 59.5133 129.943 59.5133C128.945 59.5133 126.553 57.3286 125.939 55.8596C125.555 54.9368 125.43 52.157 125.43 44.4579V34.2766H130.327V42.8834C130.327 53.3246 130.658 54.6166 133.333 54.6166C134.078 54.6166 134.12 54.7861 134.014 57.3474ZM68.0262 54.6091C72.5462 55.9952 76.5728 51.3245 74.761 46.797C73.9135 44.6801 72.2863 43.6933 69.6308 43.6933C67.9245 43.6933 67.3746 43.8778 66.222 44.827C62.9374 47.5315 64.0185 53.3811 68.0262 54.6091ZM109.799 54.4584C111.365 55.159 112.138 55.1138 113.998 54.2136C116.168 53.1627 117.144 51.5091 117.144 48.88C117.144 45.5653 115.143 43.6933 111.607 43.6933C108.111 43.697 105.964 46.168 106.311 49.7915C106.51 51.8443 107.795 53.5657 109.799 54.4584ZM141.627 45.829C141.627 46.2169 142.682 46.3299 146.362 46.3299C150.554 46.3299 151.085 46.2584 150.976 45.7122C150.663 44.1227 147.19 42.7817 144.791 43.3241C143.344 43.6518 141.627 45.0116 141.627 45.829ZM204.907 45.829C204.907 46.2169 205.958 46.3299 209.615 46.3299C214.742 46.3299 215.164 46.119 213.389 44.4541C212.259 43.3919 210.143 42.9738 208.109 43.4145C206.53 43.7535 204.907 44.9815 204.907 45.829Z" fill="#073046"/>
<path d="M26.5556 62.2442C24.2542 63.0541 21.8473 63.1256 21.8473 62.3836C21.8473 61.8035 23.2334 61.1707 25.2863 60.8129C26.872 60.5379 29.1509 58.7939 29.9569 57.2345C30.8496 55.5056 31.3318 49.2944 30.8986 45.1134C30.5031 41.3128 29.6594 39.1583 28.1339 38.0472C26.9474 37.1846 24.0696 36.194 22.6986 36.1751C21.6251 36.1601 21.4895 36.0433 21.5573 35.1996C21.6326 34.2993 21.7305 34.2541 23.1543 34.4726C28.1113 35.2372 31.377 37.6253 31.9043 40.8722C32.0211 41.6067 32.2659 42.296 32.4429 42.4052C32.6237 42.5182 32.7744 45.1812 32.7782 48.3301C32.7819 52.7334 32.6313 54.5602 32.119 56.2627C31.2715 59.0764 29.181 61.3251 26.5556 62.2442ZM205.894 73.6534C205.551 74.5461 204.184 74.3013 203.709 73.2617C203.325 72.418 203.058 72.32 201.126 72.32C199.284 72.32 198.941 72.4293 198.771 73.0734C198.64 73.5819 198.259 73.8267 197.596 73.8267C197.061 73.8267 196.621 73.6685 196.621 73.4726C196.621 73.0545 198.711 66.7416 199.528 64.6925C199.999 63.5136 200.274 63.2801 201.186 63.2801C202.421 63.2801 202.444 63.3177 204.726 69.4159C205.487 71.4424 206.011 73.3483 205.894 73.6534ZM26.179 55.5923C24.9548 56.8164 23.7984 56.7336 21.9151 55.2909C20.2163 53.9839 19.9527 53.031 20.9772 51.8972C21.61 51.2003 21.4819 49.946 20.5591 47.7915C20.3934 47.3998 20.5139 47.0985 20.8981 46.9516C21.2748 46.8047 21.5836 46.9628 21.7305 47.3734C22.126 48.4996 23.418 49.6824 24.7213 50.1118C26.3635 50.6542 27.6517 52.4396 27.3316 53.724C27.1997 54.2514 26.6799 55.0913 26.179 55.5923ZM219.974 73.0734V74.2034H216.968C216.821 74.2034 216.678 74.2034 216.543 74.2034C215.307 74.2071 214.573 74.2109 214.147 73.8493C213.518 73.3182 213.548 72.0036 213.631 68.753C213.638 68.5082 213.642 68.252 213.65 67.9884L213.759 63.4684L214.795 63.3478C215.364 63.2838 215.846 63.3667 215.865 63.5362C216 64.7151 216.113 66.8734 216.155 69.2125L216.207 71.9434H218.091C219.933 71.9434 219.974 71.9697 219.974 73.0734ZM187.385 72.9792C187.249 73.5743 186.914 73.8267 186.266 73.8267C185.351 73.8267 185.343 73.8041 185.238 69.5892L185.132 65.3517L183.908 65.235C183.027 65.1483 182.684 64.9261 182.684 64.4402C182.684 63.8827 183.121 63.7245 185.226 63.5249C189.765 63.0955 190.217 63.1558 190.217 64.1991C190.217 64.9562 190.006 65.137 188.993 65.235L187.769 65.3517L187.675 68.7417C187.622 70.6062 187.494 72.5121 187.385 72.9792ZM164.604 52.4584L164.416 59.3251L161.681 59.4343C159.688 59.5171 158.89 59.4117 158.754 59.0539C158.649 58.7826 158.611 54.0705 158.664 48.5825L158.766 38.6084L161.154 38.4954C162.529 38.4314 163.753 38.5594 164.046 38.8043C164.427 39.1169 164.781 39.1018 165.429 38.7478C165.934 38.469 167.655 38.2581 169.523 38.2506C172.164 38.2355 172.8 38.3184 173.957 39.034C173.188 38.6461 172.329 38.6084 169.87 38.6084C167.301 38.6084 166.039 38.7628 165.591 39.1357C165.079 39.5614 164.789 39.5727 164.103 39.2073C163.636 38.9587 162.325 38.8043 161.195 38.8683L159.142 38.9851L158.943 59.1367H163.764L163.911 52.5112L164.054 45.8856L165.632 44.4128C166.947 43.1887 167.474 42.9401 168.781 42.9401C170.096 42.9401 170.563 43.1623 171.621 44.2848L172.891 45.6295V45.6332L171.478 44.4542C170.213 43.3958 169.892 43.3017 168.371 43.5126C167.316 43.6595 166.322 44.0964 165.734 44.669C164.815 45.5692 164.789 45.7462 164.604 52.4584ZM200.011 69.7286C200.011 69.9094 200.519 70.06 201.141 70.06C202.127 70.06 202.271 69.9282 202.271 69.0016C202.271 68.4216 202.033 67.6193 201.743 67.2238C201.25 66.5457 201.186 66.5872 200.613 67.9507C200.282 68.7492 200.011 69.5478 200.011 69.7286ZM177.29 42.4165L177.976 43.4486V51.3849C177.976 44.4166 177.949 43.5616 177.29 42.4165Z" fill="#769993"/>
<path d="M15.2667 55.321C13.18 56.8201 11.9483 56.8276 10.4755 55.3549C9.51879 54.4019 9.36812 54.0139 9.56399 53.0271C9.86909 51.5053 10.6978 50.6051 12.276 50.0853C12.9691 49.8555 13.9635 49.1587 14.4908 48.5372C15.3195 47.5503 15.4438 47.0418 15.4438 44.6764C15.4438 41.6781 16.0577 40.5406 17.9335 40.0697C19.7152 39.6253 22.4761 42.6009 21.591 44.0134C21.0975 44.8082 21.478 47.0155 22.2049 48.2472C21.994 47.9609 21.832 47.6633 21.7303 47.3733C21.5834 46.9627 21.2746 46.8045 20.8979 46.9514C20.5137 47.0983 20.3932 47.3997 20.5589 47.7914C20.864 48.5071 21.0862 49.1248 21.2181 49.6521C20.7058 48.0927 19.2104 46.4768 18.0729 47.087C16.8826 47.7236 16.8261 48.217 17.9674 48.0099C19.2217 47.7801 19.6323 48.0438 20.2651 49.4789C21.0222 51.204 19.5457 52.3754 17.5644 51.6221C16.7885 51.3283 16.5738 50.9931 16.5738 50.0853C16.5738 49.4035 16.4156 49.0193 16.1971 49.1549C15.5643 49.5467 15.7639 51.5355 16.4796 51.9498C17.4288 52.5035 20.0768 52.4432 20.8866 51.8519C21.0938 51.7012 21.2294 51.4978 21.3122 51.2605C21.2482 51.5129 21.139 51.7238 20.977 51.8971C19.9525 53.0308 20.2161 53.9838 21.9149 55.2908C22.3029 55.5846 22.6569 55.8257 22.9884 56.0065C22.5176 55.7692 22.0091 55.4302 21.4591 54.9857C19.9073 53.7314 17.2819 53.8746 15.2667 55.321ZM13.1838 61.0124C15.6622 61.4456 21.6249 61.4456 24.2163 61.0388C22.7662 61.4041 21.8471 61.9089 21.8471 62.3835C21.8471 62.6547 22.171 62.8166 22.6946 62.8769C19.6888 63.1519 15.8581 63.2046 13.3495 62.9183C9.08186 62.4324 7.04786 61.0463 5.04022 57.2533C4.43756 56.1082 4.34339 55.0159 4.33962 48.9666C4.33209 42.2243 4.36222 41.9305 5.32272 39.8852C6.36986 37.6553 7.85016 36.2805 10.3588 35.2183C11.9747 34.5327 18.1106 34.1523 21.9262 34.3896C21.6475 34.4649 21.5985 34.7022 21.5571 35.1994C21.4893 36.0432 21.6249 36.1599 22.6984 36.175C23.2671 36.1825 24.0958 36.3596 24.9584 36.6232C23.1278 36.239 20.7322 36.1562 17.5945 36.2503C12.7619 36.3935 11.6281 36.5404 10.355 37.1958C8.30592 38.2504 7.65052 39.0603 6.73899 41.6517C6.05722 43.5878 5.97812 44.5521 6.09489 49.5203C6.21166 54.5036 6.32842 55.3737 7.07046 56.7674C8.51686 59.4982 9.86156 60.4323 13.1838 61.0124ZM132.606 72.8699C131.6 73.8304 131.144 73.9697 128.459 74.1242C126.075 74.2635 125.4 74.1882 125.238 73.7588C125.122 73.465 125.076 71.028 125.137 68.3461L125.242 63.4683L127.66 63.3553C130.463 63.2234 131.86 63.698 133.145 65.2235C134.99 67.4157 134.749 70.8133 132.606 72.8699ZM163.142 72.8247C162.178 73.7889 161.67 73.981 159.82 74.0752C157.36 74.1995 156.875 74.0677 155.62 72.9301C154.298 71.7323 153.68 70.2897 153.68 68.3913C153.68 66.8884 153.88 66.4778 155.311 64.9825C156.852 63.3741 157.052 63.2799 158.984 63.2799C160.355 63.2837 161.428 63.5285 162.25 64.0295C164.351 65.3102 163.572 67.201 161.406 66.0748C158.882 64.764 156.404 65.8639 156.057 68.4516C155.88 69.7661 155.993 70.1503 156.803 70.9564C158.103 72.2559 159.481 72.5535 160.653 71.7888C161.896 70.9752 161.835 70.5797 160.43 70.2972C159.59 70.1315 159.308 69.8867 159.402 69.4045C159.504 68.8621 159.997 68.7228 162.118 68.6286L164.709 68.5156L164.495 70.1014C164.351 71.1749 163.918 72.0525 163.142 72.8247ZM127.167 71.3481C127.464 72.1278 129.879 72.1391 130.982 71.367C132.011 70.6475 132.444 68.5608 131.807 67.3705C131.103 66.0484 130.293 65.5663 128.768 65.5512C127.148 65.5362 126.937 65.9091 126.937 68.7416C126.937 69.849 127.039 71.0204 127.167 71.3481ZM174.314 73.8869C173.723 74.2598 173.101 74.2861 172.766 73.9509C172.627 73.8153 172.514 71.3444 172.514 68.4666V63.231L174.585 63.4683L174.691 68.5231C174.77 72.3162 174.676 73.6571 174.314 73.8869ZM145.688 68.6211C145.586 73.8944 145.563 74.0187 144.735 74.1355C144.268 74.2033 143.793 74.0225 143.684 73.74C143.574 73.4537 143.533 71.028 143.593 68.3461L143.699 63.4683L144.746 63.3477L145.793 63.2272L145.688 68.6211ZM27.3276 53.7352C27.3276 53.7314 27.3276 53.7277 27.3314 53.7239C27.4783 53.1363 27.2862 52.4432 26.8794 51.8104C26.9547 51.9046 27.0187 51.995 27.0715 52.0816C27.5009 52.8199 27.6026 53.0873 27.3276 53.7352ZM25.1505 60.8391C26.0997 60.5755 27.0037 60.1461 27.7834 59.6037C26.9509 60.2176 26.0394 60.6809 25.2861 60.8128C25.2409 60.8203 25.1957 60.8278 25.1505 60.8391ZM24.3632 49.9761C23.8811 49.7689 23.414 49.4638 23.0035 49.1097C23.3688 49.3772 23.8698 49.6973 24.3632 49.9761ZM26.1788 55.5922C26.2466 55.5244 26.3106 55.4528 26.3746 55.3775C26.0319 55.8106 25.659 56.1044 25.2522 56.2664C25.5686 56.127 25.8699 55.901 26.1788 55.5922ZM29.0339 60.8655C30.3974 59.7732 31.4559 58.2627 32.0359 56.5263C31.4559 58.2703 30.3974 59.7807 29.0339 60.8655ZM31.8928 40.8118C31.8024 40.3033 31.648 39.8174 31.4295 39.3578C31.6555 39.8136 31.8099 40.292 31.889 40.7816C31.889 40.7929 31.889 40.8005 31.8928 40.8118ZM32.3975 42.3674C32.2243 42.1791 32.0133 41.5463 31.9041 40.872L31.9003 40.8645C32.0209 41.55 32.2318 42.1828 32.3975 42.3674Z" fill="#EAB049"/>
</g>
<defs>
<clipPath id="clip0_335_743">
<rect width="226" height="113" fill="white"/>
</clipPath>
</defs>
</svg>
